<svg id="X" xmlns="http://www.w3.org/2000/svg" x="0px" y="0px" width="100" height="100" viewBox="0 0 50 50"
style="fill:#FFFFFF;">
<path d="M 5.9199219 6 L 20.582031 27.375 L 6.2304688 44 L 9.4101562 44 L 21.986328 29.421875 L 31.986328 44 L 44 44 L 28.681641 21.669922 L 42.199219 6 L 39.029297 6 L 27.275391 19.617188 L 17.933594 6 L 5.9199219 6 z M 9.7167969 8 L 16.880859 8 L 40.203125 42 L 33.039062 42 L 9.7167969 8 z"></path>
</svg>

<svg id="facebook" xmlns="http://www.w3.org/2000/svg" x="0px" y="0px" width="100" height="100" viewBox="0,0,300,150"
style="fill:#FFFFFF;">
<g fill="#ffffff" fill-rule="nonzero" stroke="none" stroke-width="1" stroke-linecap="butt" stroke-linejoin="miter" stroke-miterlimit="10" stroke-dasharray="" stroke-dashoffset="0" font-family="none" font-weight="none" font-size="none" text-anchor="none" style="mix-blend-mode: normal"><g transform="scale(8.53333,8.53333)"><path d="M12,27v-12h-4v-4h4v-2.148c0,-4.067 1.981,-5.852 5.361,-5.852c1.619,0 2.475,0.12 2.88,0.175v3.825h-2.305c-1.435,0 -1.936,0.757 -1.936,2.291v1.709h4.205l-0.571,4h-3.634v12z"></path></g></g>
</svg>

<svg  id="Instagram" xmlns="http://www.w3.org/2000/svg" x="0px" y="0px" width="100" height="100" viewBox="0,0,300,150"
style="fill:#FFFFFF;">
<g fill="#ffffff" fill-rule="nonzero" stroke="none" stroke-width="1" stroke-linecap="butt" stroke-linejoin="miter" stroke-miterlimit="10" stroke-dasharray="" stroke-dashoffset="0" font-family="none" font-weight="none" font-size="none" text-anchor="none" style="mix-blend-mode: normal"><g transform="scale(5.33333,5.33333)"><path d="M15,4c-6.06341,0 -11,4.93659 -11,11v18c0,6.06341 4.93659,11 11,11h18c6.06341,0 11,-4.93659 11,-11v-18c0,-6.06341 -4.93659,-11 -11,-11zM15,6h18c4.98259,0 9,4.01741 9,9v18c0,4.98259 -4.01741,9 -9,9h-18c-4.98259,0 -9,-4.01741 -9,-9v-18c0,-4.98259 4.01741,-9 9,-9zM35,11c-1.105,0 -2,0.895 -2,2c0,1.105 0.895,2 2,2c1.105,0 2,-0.895 2,-2c0,-1.105 -0.895,-2 -2,-2zM24,14c-5.51133,0 -10,4.48867 -10,10c0,5.51133 4.48867,10 10,10c5.51133,0 10,-4.48867 10,-10c0,-5.51133 -4.48867,-10 -10,-10zM24,16c4.43067,0 8,3.56933 8,8c0,4.43067 -3.56933,8 -8,8c-4.43067,0 -8,-3.56933 -8,-8c0,-4.43067 3.56933,-8 8,-8z"></path></g></g>
</svg>

<svg  id="Youtube" xmlns="http://www.w3.org/2000/svg" x="0px" y="0px" width="100" height="100" viewBox="0,0,300,150"
style="fill:#FFFFFF;">
<g fill="#ffffff" fill-rule="nonzero" stroke="none" stroke-width="1" stroke-linecap="butt" stroke-linejoin="miter" stroke-miterlimit="10" stroke-dasharray="" stroke-dashoffset="0" font-family="none" font-weight="none" font-size="none" text-anchor="none" style="mix-blend-mode: normal"><g transform="scale(5.12,5.12)"><path d="M44.89844,14.5c-0.39844,-2.19922 -2.29687,-3.80078 -4.5,-4.30078c-3.29687,-0.69922 -9.39844,-1.19922 -16,-1.19922c-6.59766,0 -12.79687,0.5 -16.09766,1.19922c-2.19922,0.5 -4.10156,2 -4.5,4.30078c-0.40234,2.5 -0.80078,6 -0.80078,10.5c0,4.5 0.39844,8 0.89844,10.5c0.40234,2.19922 2.30078,3.80078 4.5,4.30078c3.5,0.69922 9.5,1.19922 16.10156,1.19922c6.60156,0 12.60156,-0.5 16.10156,-1.19922c2.19922,-0.5 4.09766,-2 4.5,-4.30078c0.39844,-2.5 0.89844,-6.10156 1,-10.5c-0.20312,-4.5 -0.70312,-8 -1.20312,-10.5zM19,32v-14l12.19922,7z"></path></g></g>
</svg>